{"title":"Brazzers Baby Got Boobs Kandace Kane July 21 2016.mp4","uid":15371982,"size":294570863,"categoryP":"porn","categoryS":"movies","magnet":"?xt=urn:btih:6aaddcd07f8e7235037d396ddff16bf836a18c85&amp;dn=Brazzers+Baby+Got+Boobs+Kandace+Kane+July+21+2016.mp4&amp;tr=udp%3A%2F%2Ftracker.leechers-paradise.org%3A6969&amp;tr=udp%3A%2F%2Fzer0day.ch%3A1337&amp;tr=udp%3A%2F%2Fopen.demonii.com%3A1337&amp;tr=udp%3A%2F%2Ftracker.coppersurfer.tk%3A6969&amp;tr=udp%3A%2F%2Fexodus.desync.com%3A6969","seeders":12,"leechers":1,"uploader":"PornyXXX","files":1,"time":1469146542,"description":"\n[Brazzers][Baby Got Boobs] Kandace Kayne [July 21 *2016*][10GBps WebSeeD].mp4\r\n\r\nScreenShots:\r\n \nhttp://www.madimg.net/XxX/Brazzers072116/1.html  \nhttp://www.madimg.net/XxX/Brazzers072116/2.html  \nhttp://www.madimg.net/XxX/Brazzers072116/3.html  \nhttp://www.madimg.net/XxX/Brazzers072116/4.html  \nhttp://www.madimg.net/XxX/Brazzers072116/5.html \r\n\r\nINFO:\r\n\r\nFormat                                   : MPEG-4 \r\nFormat profile                           : Base Media \r\nCodec ID                                 : isom (isom/iso2/avc1/mp41) \r\nFile size                                : 281 MiB \r\nDuration                                 : 34mn 46s \r\nOverall bit rate                         : 1 130 Kbps \r\nWriting application                      : Lavf57.28.100 \r\n\r\nVideo \r\nID                                       : 1 \r\nFormat                                   : AVC \r\nFormat/Info                              : Advanced Video Codec \r\nFormat profile                           :    \r\nFormat settings, CABAC                   : Yes \r\nFormat settings, ReFrames                : 5 frames \r\nCodec ID                                 : avc1 \r\nCodec ID/Info                            : Advanced Video Coding \r\nDuration                                 : 34mn 46s \r\nBit rate                                 : 1 000 Kbps \r\nWidth                                    : 854 pixels \r\nHeight                                   : 480 pixels \r\nDisplay aspect ratio                     : 16:9 \r\nOriginal display aspect ratio            : 16:9 \r\nFrame rate mode                          : Constant \r\nFrame rate                               : 23.976 (24000/1001) fps \r\nColor space                              : YUV \r\nChroma subsampling                       : 4:2:0 \r\nBit depth                                : 8 bits \r\nScan type                                : Progressive \r\nBits/(Pixel*Frame)                       : 0.102 \r\nStream size                              : 248 MiB (88%) \r\nWriting library                          : x264 core 148 r2665 a01e339 \r\nEncoding settings                        : cabac=1 / ref=5 / deblock=1:0:0 / analyse=0x3:0x113 / me=umh / subme=8 / psy=1 / psy_rd=1.00:0.00 / mixed_ref=1 / me_range=16 / chroma_me=1 / trellis=1 / 8x8dct=1 / cqm=0 / deadzone=21,11 / fast_pskip=1 / chroma_qp_offset=-2 / threads=18 / lookahead_threads=3 / sliced_threads=0 / nr=0 / decimate=1 / interlaced=0 / bluray_compat=0 / constrained_intra=0 / bframes=3 / b_pyramid=2 / b_adapt=2 / b_bias=0 / direct=3 / weightb=1 / open_gop=0 / weightp=2 / keyint=60 / keyint_min=6 / scenecut=40 / intra_refresh=0 / rc_lookahead=50 / rc=abr / mbtree=1 / bitrate=1000 / ratetol=1.0 / qcomp=0.60 / qpmin=0 / qpmax=69 / qpstep=4 / ip_ratio=1.40 / aq=1:1.00 \r\nLanguage                                 : English \r\nTagged date                              : UTC 2016-07-19 00:30:36 \r\n\r\nAudio \r\nID                                       : 2 \r\nFormat                                   : AAC \r\nFormat/Info                              : Advanced Audio Codec \r\nFormat profile                           : LC \r\nCodec ID                                 : 40 \r\nDuration                                 : 34mn 46s \r\nDuration_LastFrame                       : 62ms \r\nBit rate mode                            : Constant \r\nBit rate                                 : 128 Kbps \r\nChannel(s)                               : 2 channels \r\nChannel positions                        : Front: L R \r\nSampling rate                            : 48.0 KHz \r\nFrame rate                               : 46.875 fps (1024 spf) \r\nCompression mode                         : Lossy \r\nStream size                              : 31.8 MiB (11%) \r\nLanguage                                 : English \r\nDefault                                  : Yes \r\nAlternate group                          : 1 \r\nTagged date                              : UTC 2016-07-19 00:30:36","torrent":{"xt":"urn:btih:6aaddcd07f8e7235037d396ddff16bf836a18c85","amp;dn":"Brazzers+Baby+Got+Boobs+Kandace+Kane+July+21+2016.mp4","amp;tr":["udp%3A%2F%2Ftracker.leechers-paradise.org%3A6969","udp%3A%2F%2Fzer0day.ch%3A1337","udp%3A%2F%2Fopen.demonii.com%3A1337","udp%3A%2F%2Ftracker.coppersurfer.tk%3A6969","udp%3A%2F%2Fexodus.desync.com%3A6969"],"infoHash":"6aaddcd07f8e7235037d396ddff16bf836a18c85","infoHashBuffer":{"type":"Buffer","data":[106,173,220,208,127,142,114,53,3,125,57,109,223,241,107,248,54,161,140,133]},"announce":[],"urlList":[]}}